# xmcd
#
# Track frame offsets: 
#        150
#        11806
#        26236
#        38769
#        51767
#        59641
#        70962
#        82081
#        96133
#        105861
#        120751
#        133318
#        145299
#        158093
#        171949
#        183961
#        195673
#        208888
#        219932
#        231809
#        245630
#        258688
#        272176
#        286447
#        301394
#        313557
#
# Disc length: 4365 seconds
#
# Revision: 7
# Processed by: cddbd v1.5.2PL0 Copyright (c) Steve Scherf et al.
# Submitted via: ExactAudioCopyFreeDBPlugin 1.0
#
DISCID=86110b1a
DTITLE=Merle Haggard - Down Every Road - 1962-1994 - CD3
DYEAR=1996
DGENRE=Country
TTITLE0=Right Or Wrong
TTITLE1=Trouble In Mind
TTITLE2=Stay A Little Longer
TTITLE3=The Farmer's Daughter
TTITLE4=Tulare Dust
TTITLE5=Carolyn
TTITLE6=Someday We'll Look Back
TTITLE7=Daddy Frank (The Guitar Man)
TTITLE8=Grandma Harp
TTITLE9=It's Not Love (But It's Not Bad)
TTITLE10=I Wonder If They Ever Think Of Me
TTITLE11=If We Make It Thought December
TTITLE12=The Emptiest Arms In The World
TTITLE13=Everybody's Had The Blues
TTITLE14=Things Aren't Funny Anymore
TTITLE15=Honky Tonk Night Time Man
TTITLE16=Holding Things Together
TTITLE17=Here In Frisco
TTITLE18=Kentucky Gambler
TTITLE19=Always Wanting You
TTITLE20=Living With The Shades Pulled Down
TTITLE21=Running Kind
TTITLE22=It's All In The Movies
TTITLE23=The Way It Was In '51
TTITLE24=I Never Go Around Mirrors
TTITLE25=What Have You Got Planned Tonight Diana
EXTD=Capitol 35714-2-0
EXTT0=
EXTT1=
EXTT2=
EXTT3=
EXTT4=
EXTT5=
EXTT6=
EXTT7=
EXTT8=
EXTT9=
EXTT10=
EXTT11=
EXTT12=
EXTT13=
EXTT14=
EXTT15=
EXTT16=
EXTT17=
EXTT18=
EXTT19=
EXTT20=
EXTT21=
EXTT22=
EXTT23=
EXTT24=
EXTT25=
PLAYORDER=
